<svg width="20" height="20" viewBox="0 0 40 40" fill="none" xmlns="http://www.w3.org/2000/svg">
<path fill-rule="evenodd" clip-rule="evenodd" d="M3.39505 18.8221C13.7309 14.319 20.623 11.3502 24.0715 9.91589C33.9177 5.82053 35.9637 5.10912 37.2972 5.08563C37.5905 5.08046 38.2463 5.15315 38.6711 5.49784C39.0298 5.78889 39.1285 6.18205 39.1757 6.458C39.2229 6.73395 39.2817 7.36256 39.235 7.85374C38.7014 13.46 36.3926 27.0648 35.2181 33.3439C34.7211 36.0008 33.7425 36.8917 32.7951 36.9789C30.7362 37.1683 29.1727 35.6182 27.1785 34.311C24.058 32.2655 22.2952 30.9921 19.2662 28.9961C15.7657 26.6893 18.0349 25.4215 20.0298 23.3495C20.5519 22.8072 29.6236 14.5558 29.7992 13.8073C29.8211 13.7137 29.8415 13.3647 29.6342 13.1804C29.4269 12.9962 29.1209 13.0592 28.9001 13.1093C28.5872 13.1803 23.6021 16.4753 13.9451 22.994C12.5301 23.9657 11.2485 24.4391 10.1001 24.4143C8.83422 24.3869 6.3991 23.6985 4.58883 23.1101C2.36847 22.3883 0.60377 22.0067 0.757436 20.781C0.837474 20.1425 1.71668 19.4896 3.39505 18.8221Z" fill="none"/>
</svg>
